<?xml version="1.0" encoding="UTF-8" standalone="no"?>
<!DOCTYPE svg PUBLIC "-//W3C//DTD SVG 1.1//EN" "http://www.w3.org/Graphics/SVG/1.1/DTD/svg11.dtd">
<svg width="100%" height="100%" viewBox="0 0 16 16" version="1.1" xmlns="http://www.w3.org/2000/svg" xmlns:xlink="http://www.w3.org/1999/xlink" xml:space="preserve" xmlns:serif="http://www.serif.com/" style="fill-rule:evenodd;clip-rule:evenodd;stroke-linejoin:round;stroke-miterlimit:2;">
    <g>
        <path d="M9.524,14.76C9.043,14.916 8.53,15 8,15C5.257,15 3,12.743 3,10L3,6C3,3.257 5.257,1 8,1C10.743,1 13,3.257 13,6L13,6.985C12.521,6.923 12.02,6.936 11.523,7.021C11.339,7.052 11.158,7.093 10.981,7.143C10.988,7.138 10.994,7.133 11,7.129L11,6C11,4.704 10.16,3.589 9,3.173L9,7.793C9.277,7.761 9.541,7.715 9.785,7.657C8.601,8.368 7.818,9.557 8.037,10.956C8.226,12.163 8.711,13.374 9.362,14.507C9.413,14.595 9.467,14.68 9.524,14.76ZM5,7.129C5.089,7.193 5.335,7.365 5.549,7.451C5.949,7.611 6.446,7.729 7,7.793L7,3.173C5.84,3.589 5,4.704 5,6L5,7.129ZM7,12.827L7,9.801C6.251,9.728 5.569,9.575 5,9.372L5,10C5,11.296 5.84,12.411 7,12.827Z" style="fill:rgb(248,125,126);"/>
    </g>
    <g transform="matrix(0.0157037,0,0,0.0157037,3.56356,4.51482)">
        <path d="M678.324,460.618C658.321,472.358 638.462,478.131 612.625,480.162C567.246,483.729 532.112,452.658 528.819,454.394C524.685,456.574 543.388,474.053 560.148,480.965C565.045,482.968 569.161,486.506 571.877,491.048C581.922,507.804 588.666,522.932 595.293,546.397C634.586,685.527 482.247,705.033 424.467,604.549C386.972,539.343 358.65,469.832 347.794,400.364C318.355,211.987 703.165,129.806 727.373,353.045C732.761,402.734 713.348,440.061 678.324,460.618ZM522.492,375.379C517.157,401.933 584.388,398.372 577.842,374.387C567.187,335.349 528.752,344.221 522.492,375.379Z" style="fill:rgb(248,125,126);"/>
    </g>
</svg>
