<?xml version="1.0" encoding="UTF-8" standalone="no"?>
<!DOCTYPE svg PUBLIC "-//W3C//DTD SVG 1.1//EN" "http://www.w3.org/Graphics/SVG/1.1/DTD/svg11.dtd">
<svg width="100%" height="100%" viewBox="0 0 16 16" version="1.1" xmlns="http://www.w3.org/2000/svg" xmlns:xlink="http://www.w3.org/1999/xlink" xml:space="preserve" xmlns:serif="http://www.serif.com/" style="fill-rule:evenodd;clip-rule:evenodd;stroke-linejoin:round;stroke-miterlimit:2;">
    <path d="M10.075,15L9,15L9,13.217C9.175,13.61 9.373,13.997 9.591,14.375C9.73,14.617 9.894,14.825 10.075,15ZM3,1L3,3L1,3C1,1.903 1.903,1 3,1ZM5,1L7,1L7,3L5,3L5,1ZM9,1L11,1L11,3L9,3L9,1ZM13,1C14.097,1 15,1.903 15,3L13,3L13,1ZM1,5L3,5L3,7L1,7L1,5ZM13,5L15,5L15,7L13,7L13,5ZM1,9L3,9L3,11L1,11L1,9ZM1,13L3,13L3,15C1.903,15 1,14.097 1,13ZM5,13L7,13L7,15L5,15L5,13Z" style="fill:rgb(252,127,127);"/>
    <g transform="matrix(0.0157037,0,0,0.0157037,3.56356,4.51482)">
        <path d="M678.324,460.618C658.321,472.358 638.462,478.131 612.625,480.162C567.246,483.729 532.112,452.658 528.819,454.394C524.685,456.574 543.388,474.053 560.148,480.965C565.045,482.968 569.161,486.506 571.877,491.048C581.922,507.804 588.666,522.932 595.293,546.397C634.586,685.527 482.247,705.033 424.467,604.549C386.972,539.343 358.65,469.832 347.794,400.364C318.355,211.987 703.165,129.806 727.373,353.045C732.761,402.734 713.348,440.061 678.324,460.618ZM522.492,375.379C517.157,401.933 584.388,398.372 577.842,374.387C567.187,335.349 528.752,344.221 522.492,375.379Z" style="fill:rgb(248,125,126);"/>
    </g>
</svg>
