<?xml version="1.0" encoding="UTF-8" standalone="no"?>
<!DOCTYPE svg PUBLIC "-//W3C//DTD SVG 1.1//EN" "http://www.w3.org/Graphics/SVG/1.1/DTD/svg11.dtd">
<svg width="100%" height="100%" viewBox="0 0 16 16" version="1.1" xmlns="http://www.w3.org/2000/svg" xmlns:xlink="http://www.w3.org/1999/xlink" xml:space="preserve" xmlns:serif="http://www.serif.com/" style="fill-rule:evenodd;clip-rule:evenodd;stroke-linejoin:round;stroke-miterlimit:2;">
    <g>
        <path d="M9.085,14L4.73,14C4.374,14.622 3.711,15.006 2.994,15.006C1.897,15.006 0.994,14.103 0.994,13.006C0.994,12.29 1.379,11.627 2,11.271L2,4.73C1.379,4.374 0.995,3.711 0.995,2.995C0.995,1.898 1.898,0.995 2.995,0.995C3.711,0.995 4.374,1.379 4.73,2L11.27,2C11.626,1.378 12.289,0.994 13.006,0.994C14.103,0.994 15.006,1.897 15.006,2.994C15.006,3.71 14.621,4.373 14,4.729L14,7.244C13.393,6.997 12.7,6.908 11.999,6.962L11.999,4.73C11.696,4.555 11.445,4.303 11.27,4L5.412,4L9.36,7.947C8.799,8.379 8.368,8.932 8.152,9.568L3.999,5.414L3.998,11.27C4.301,11.445 4.552,11.697 4.727,12L8.271,12C8.468,12.678 8.747,13.349 9.085,14ZM14.934,12.473C14.981,12.645 15.006,12.823 15.006,13.006C15.006,13.831 14.495,14.547 13.775,14.85C14.018,14.375 14.107,13.746 13.908,12.949C14.197,12.876 14.458,12.765 14.722,12.611C14.795,12.568 14.866,12.522 14.934,12.473Z" style="fill:rgb(252,127,127);"/>
    </g>
    <g transform="matrix(0.0157037,0,0,0.0157037,3.56356,4.51482)">
        <path d="M678.324,460.618C658.321,472.358 638.462,478.131 612.625,480.162C567.246,483.729 532.112,452.658 528.819,454.394C524.685,456.574 543.388,474.053 560.148,480.965C565.045,482.968 569.161,486.506 571.877,491.048C581.922,507.804 588.666,522.932 595.293,546.397C634.586,685.527 482.247,705.033 424.467,604.549C386.972,539.343 358.65,469.832 347.794,400.364C318.355,211.987 703.165,129.806 727.373,353.045C732.761,402.734 713.348,440.061 678.324,460.618ZM522.492,375.379C517.157,401.933 584.388,398.372 577.842,374.387C567.187,335.349 528.752,344.221 522.492,375.379Z" style="fill:rgb(252,127,127);"/>
    </g>
</svg>
