<?xml version="1.0" encoding="UTF-8" standalone="no"?>
<!DOCTYPE svg PUBLIC "-//W3C//DTD SVG 1.1//EN" "http://www.w3.org/Graphics/SVG/1.1/DTD/svg11.dtd">
<svg width="100%" height="100%" viewBox="0 0 16 16" version="1.1" xmlns="http://www.w3.org/2000/svg" xmlns:xlink="http://www.w3.org/1999/xlink" xml:space="preserve" xmlns:serif="http://www.serif.com/" style="fill-rule:evenodd;clip-rule:evenodd;stroke-linejoin:round;stroke-miterlimit:2;">
    <g>
        <path d="M8.78,13.37C8.523,13.391 8.263,13.401 8,13.401C5.241,13.401 2.766,12.233 1.663,10.547L1.648,10.524L1.634,10.5C0.742,8.955 0.742,7.045 1.634,5.5L1.648,5.476L1.663,5.453C2.766,3.767 5.241,2.599 8,2.599C10.759,2.599 13.234,3.767 14.337,5.453L14.352,5.476L14.366,5.5C14.796,6.245 15.019,7.075 15.034,7.907C14.462,7.355 13.687,7.05 12.852,6.969C12.796,6.815 12.727,6.665 12.645,6.519C11.833,5.31 9.991,4.599 8,4.599C6.007,4.599 4.162,5.312 3.346,6.535C2.836,7.447 2.837,8.564 3.352,9.475L3.355,9.481C4.167,10.69 6.009,11.401 8,11.401C8.04,11.401 8.08,11.401 8.12,11.401C8.262,12.064 8.489,12.725 8.78,13.37ZM8.174,9.508C8.116,9.51 8.058,9.511 8,9.511C6.963,9.511 6.071,9.159 5.619,8.725C5.549,8.658 5.487,8.588 5.433,8.517L5.275,8.265L5.165,7.967L5.125,7.636L5.159,7.33L5.255,7.047L5.397,6.801L5.572,6.591C5.908,6.244 6.462,6.236 6.809,6.572C7.081,6.835 7.145,7.234 6.997,7.561C7.039,7.584 7.084,7.606 7.124,7.621C7.37,7.711 7.674,7.761 8,7.761C8.326,7.761 8.63,7.711 8.876,7.621C8.916,7.606 8.961,7.584 9.003,7.561C8.855,7.234 8.919,6.835 9.191,6.572C9.538,6.236 10.092,6.244 10.428,6.591L10.603,6.801L10.745,7.047L10.796,7.199C9.584,7.593 8.566,8.426 8.174,9.508Z" style="fill:rgb(248,125,126);"/>
    </g>
    <g transform="matrix(0.0157037,0,0,0.0157037,3.56356,4.51482)">
        <path d="M678.324,460.618C658.321,472.358 638.462,478.131 612.625,480.162C567.246,483.729 532.112,452.658 528.819,454.394C524.685,456.574 543.388,474.053 560.148,480.965C565.045,482.968 569.161,486.506 571.877,491.048C581.922,507.804 588.666,522.932 595.293,546.397C634.586,685.527 482.247,705.033 424.467,604.549C386.972,539.343 358.65,469.832 347.794,400.364C318.355,211.987 703.165,129.806 727.373,353.045C732.761,402.734 713.348,440.061 678.324,460.618ZM522.492,375.379C517.157,401.933 584.388,398.372 577.842,374.387C567.187,335.349 528.752,344.221 522.492,375.379Z" style="fill:rgb(248,125,126);"/>
    </g>
</svg>
