<?xml version="1.0" encoding="UTF-8" standalone="no"?>
<!DOCTYPE svg PUBLIC "-//W3C//DTD SVG 1.1//EN" "http://www.w3.org/Graphics/SVG/1.1/DTD/svg11.dtd">
<svg width="100%" height="100%" viewBox="0 0 16 16" version="1.1" xmlns="http://www.w3.org/2000/svg" xmlns:xlink="http://www.w3.org/1999/xlink" xml:space="preserve" xmlns:serif="http://www.serif.com/" style="fill-rule:evenodd;clip-rule:evenodd;stroke-linejoin:round;stroke-miterlimit:2;">
    <g>
        <path d="M9.568,14.821C9.063,14.938 8.538,15 8,15C4.16,15 1,11.84 1,8C1,4.16 4.16,1 8,1C11.798,1 14.931,4.091 14.999,7.874C14.439,7.351 13.695,7.058 12.892,6.973C12.482,5.038 10.938,3.502 9,3.102L9,8.113C9.057,8.11 9.113,8.106 9.17,8.102C8.345,8.818 7.859,9.817 8.037,10.956C8.226,12.163 8.711,13.374 9.362,14.507C9.426,14.618 9.495,14.723 9.568,14.821ZM7,3.102C5.011,3.512 3.437,5.12 3.077,7.126L3.122,7.157C3.299,7.287 3.533,7.403 3.809,7.509C4.62,7.824 5.742,8.038 7,8.113L7,3.102ZM7,12.898L7,10.115C5.522,10.034 4.194,9.777 3.207,9.418C3.731,11.166 5.194,12.525 7,12.898Z" style="fill:rgb(248,125,126);"/>
    </g>
    <g transform="matrix(0.0157037,0,0,0.0157037,3.56356,4.51482)">
        <path d="M678.324,460.618C658.321,472.358 638.462,478.131 612.625,480.162C567.246,483.729 532.112,452.658 528.819,454.394C524.685,456.574 543.388,474.053 560.148,480.965C565.045,482.968 569.161,486.506 571.877,491.048C581.922,507.804 588.666,522.932 595.293,546.397C634.586,685.527 482.247,705.033 424.467,604.549C386.972,539.343 358.65,469.832 347.794,400.364C318.355,211.987 703.165,129.806 727.373,353.045C732.761,402.734 713.348,440.061 678.324,460.618ZM522.492,375.379C517.157,401.933 584.388,398.372 577.842,374.387C567.187,335.349 528.752,344.221 522.492,375.379Z" style="fill:rgb(248,125,126);"/>
    </g>
</svg>
