<?xml version="1.0" encoding="UTF-8" standalone="no"?>
<!DOCTYPE svg PUBLIC "-//W3C//DTD SVG 1.1//EN" "http://www.w3.org/Graphics/SVG/1.1/DTD/svg11.dtd">
<svg width="100%" height="100%" viewBox="0 0 16 16" version="1.1" xmlns="http://www.w3.org/2000/svg" xmlns:xlink="http://www.w3.org/1999/xlink" xml:space="preserve" xmlns:serif="http://www.serif.com/" style="fill-rule:evenodd;clip-rule:evenodd;stroke-linejoin:round;stroke-miterlimit:2;">
    <g>
        <path d="M9.331,14.452L8.447,14.894L8.383,14.924C8.115,15.035 7.812,15.024 7.553,14.894L1.553,11.894C1.108,11.672 0.894,11.156 1.051,10.684L4.051,1.684C4.143,1.409 4.349,1.187 4.617,1.076C4.885,0.965 5.188,0.976 5.447,1.106L11.447,4.106C11.647,4.206 11.801,4.365 11.894,4.553L13.119,7.003C12.605,6.921 12.061,6.929 11.523,7.021C10.441,7.204 9.44,7.732 8.784,8.487L9.777,5.507L5.584,3.41L3.223,10.493L7.416,12.59L8.016,10.79C8.021,10.845 8.028,10.901 8.037,10.956C8.223,12.144 8.695,13.335 9.331,14.452Z" style="fill:rgb(248,125,126);"/>
    </g>
    <g transform="matrix(0.0157037,0,0,0.0157037,3.56356,4.51482)">
        <path d="M678.324,460.618C658.321,472.358 638.462,478.131 612.625,480.162C567.246,483.729 532.112,452.658 528.819,454.394C524.685,456.574 543.388,474.053 560.148,480.965C565.045,482.968 569.161,486.506 571.877,491.048C581.922,507.804 588.666,522.932 595.293,546.397C634.586,685.527 482.247,705.033 424.467,604.549C386.972,539.343 358.65,469.832 347.794,400.364C318.355,211.987 703.165,129.806 727.373,353.045C732.761,402.734 713.348,440.061 678.324,460.618ZM522.492,375.379C517.157,401.933 584.388,398.372 577.842,374.387C567.187,335.349 528.752,344.221 522.492,375.379Z" style="fill:rgb(248,125,126);"/>
    </g>
</svg>
