<?xml version="1.0" encoding="UTF-8" standalone="no"?>
<!DOCTYPE svg PUBLIC "-//W3C//DTD SVG 1.1//EN" "http://www.w3.org/Graphics/SVG/1.1/DTD/svg11.dtd">
<svg width="100%" height="100%" viewBox="0 0 16 16" version="1.1" xmlns="http://www.w3.org/2000/svg" xmlns:xlink="http://www.w3.org/1999/xlink" xml:space="preserve" xmlns:serif="http://www.serif.com/" style="fill-rule:evenodd;clip-rule:evenodd;stroke-linejoin:round;stroke-miterlimit:2;">
    <g>
        <path d="M6.098,14.62C4.287,13.865 3,12.071 3,10L3,6C3,3.929 4.287,2.135 6.098,1.38C6.034,1.575 6,1.784 6,2C6,2.534 6.21,3.019 6.551,3.378C5.629,3.892 5,4.878 5,6L5,7.129C5.089,7.193 5.335,7.365 5.549,7.451C5.949,7.611 6.446,7.729 7,7.793L7,3.732C7.294,3.902 7.636,4 8,4C8.364,4 8.706,3.902 9,3.732L9,7.793C9.277,7.761 9.541,7.715 9.785,7.657C8.601,8.368 7.818,9.557 8.037,10.956C8.093,11.311 8.174,11.666 8.277,12.019C8.186,12.006 8.094,12 8,12C7.636,12 7.294,12.098 7,12.268L7,9.801C6.251,9.728 5.569,9.575 5,9.372L5,10C5,11.122 5.629,12.108 6.551,12.622C6.21,12.981 6,13.466 6,14C6,14.216 6.034,14.425 6.098,14.62ZM9.902,1.38C11.713,2.135 13,3.929 13,6L13,6.985C12.521,6.923 12.02,6.936 11.523,7.021C11.339,7.052 11.158,7.093 10.981,7.143L11,7.129L11,6C11,4.878 10.371,3.892 9.449,3.378C9.79,3.019 10,2.534 10,2C10,1.784 9.966,1.575 9.902,1.38Z" style="fill:rgb(248,125,126);"/>
        <g transform="matrix(1,0,0,1,0.159509,-0.274029)">
            <circle cx="7.84" cy="2.274" r="1.006" style="fill:rgb(248,125,126);"/>
        </g>
        <g transform="matrix(1,0,0,1,0.159509,11.726)">
            <circle cx="7.84" cy="2.274" r="1.006" style="fill:rgb(248,125,126);"/>
        </g>
    </g>
    <g transform="matrix(0.0157037,0,0,0.0157037,3.56356,4.51482)">
        <path d="M678.324,460.618C658.321,472.358 638.462,478.131 612.625,480.162C567.246,483.729 532.112,452.658 528.819,454.394C524.685,456.574 543.388,474.053 560.148,480.965C565.045,482.968 569.161,486.506 571.877,491.048C581.922,507.804 588.666,522.932 595.293,546.397C634.586,685.527 482.247,705.033 424.467,604.549C386.972,539.343 358.65,469.832 347.794,400.364C318.355,211.987 703.165,129.806 727.373,353.045C732.761,402.734 713.348,440.061 678.324,460.618ZM522.492,375.379C517.157,401.933 584.388,398.372 577.842,374.387C567.187,335.349 528.752,344.221 522.492,375.379Z" style="fill:rgb(248,125,126);"/>
    </g>
</svg>
