<?xml version="1.0" encoding="UTF-8" standalone="no"?>
<!DOCTYPE svg PUBLIC "-//W3C//DTD SVG 1.1//EN" "http://www.w3.org/Graphics/SVG/1.1/DTD/svg11.dtd">
<svg width="100%" height="100%" viewBox="0 0 16 16" version="1.1" xmlns="http://www.w3.org/2000/svg" xmlns:xlink="http://www.w3.org/1999/xlink" xml:space="preserve" xmlns:serif="http://www.serif.com/" style="fill-rule:evenodd;clip-rule:evenodd;stroke-linejoin:round;stroke-miterlimit:2;">
    <g>
        <path d="M9.036,13.904C8.68,13.968 8.333,14 8,14C5.5,14 2.163,12.211 1.045,8.255C0.994,8.075 0.994,7.885 1.045,7.705C2.209,3.948 5.443,2 8,2C10.554,2 13.861,3.935 14.961,7.725C14.974,7.771 14.984,7.819 14.991,7.866C14.197,7.131 13.037,6.853 11.865,6.974C11.407,5.27 9.84,4 8,4C5.806,4 4,5.806 4,8C4,10.194 5.806,12 8,12C8.09,12 8.18,11.997 8.269,11.991C8.456,12.639 8.718,13.28 9.036,13.904ZM8.043,10C8.028,10 8.014,10 8,10C6.903,10 6,9.097 6,8C6,6.903 6.903,6 8,6C8.947,6 9.749,6.673 9.951,7.562C8.965,8.101 8.223,8.96 8.043,10Z" style="fill:rgb(252,127,127);"/>
    </g>
    <g transform="matrix(0.0157037,0,0,0.0157037,3.56356,4.51482)">
        <path d="M678.324,460.618C658.321,472.358 638.462,478.131 612.625,480.162C567.246,483.729 532.112,452.658 528.819,454.394C524.685,456.574 543.388,474.053 560.148,480.965C565.045,482.968 569.161,486.506 571.877,491.048C581.922,507.804 588.666,522.932 595.293,546.397C634.586,685.527 482.247,705.033 424.467,604.549C386.972,539.343 358.65,469.832 347.794,400.364C318.355,211.987 703.165,129.806 727.373,353.045C732.761,402.734 713.348,440.061 678.324,460.618ZM522.492,375.379C517.157,401.933 584.388,398.372 577.842,374.387C567.187,335.349 528.752,344.221 522.492,375.379Z" style="fill:rgb(252,127,127);"/>
    </g>
</svg>
