<?xml version="1.0" encoding="UTF-8" standalone="no"?>
<!DOCTYPE svg PUBLIC "-//W3C//DTD SVG 1.1//EN" "http://www.w3.org/Graphics/SVG/1.1/DTD/svg11.dtd">
<svg width="100%" height="100%" viewBox="0 0 16 16" version="1.1" xmlns="http://www.w3.org/2000/svg" xmlns:xlink="http://www.w3.org/1999/xlink" xml:space="preserve" xmlns:serif="http://www.serif.com/" style="fill-rule:evenodd;clip-rule:evenodd;stroke-linejoin:round;stroke-miterlimit:2;">
    <g>
        <path d="M6.22,14.912C4.668,14.757 3.336,14.407 2.476,13.958C1.747,13.578 1.302,13.091 1.118,12.621C1.008,12.337 1.032,12.019 1.185,11.756L6.266,2.997C6.611,3.595 7.257,3.999 7.996,4L4.224,10.503C5.31,10.232 6.638,10 8,10L8.042,10C7.99,10.305 7.985,10.625 8.037,10.956C8.092,11.306 8.171,11.655 8.272,12.003C8.182,12.001 8.091,12 8,12C6.646,12 5.33,12.263 4.32,12.54C4.894,12.71 5.575,12.838 6.32,12.915C6.117,13.228 6,13.6 6,14C6,14.329 6.079,14.639 6.22,14.912ZM9.734,2.997L12.033,6.959C11.863,6.971 11.693,6.992 11.523,7.021C11.001,7.109 10.497,7.278 10.042,7.514L8.004,4C8.743,3.999 9.389,3.595 9.734,2.997ZM14.925,12.48C14.914,12.527 14.9,12.575 14.882,12.621C14.744,12.975 14.458,13.337 14.015,13.657C14.005,13.438 13.971,13.202 13.908,12.949C14.197,12.876 14.458,12.765 14.722,12.611C14.792,12.57 14.86,12.526 14.925,12.48Z" style="fill:rgb(248,125,126);"/>
        <g transform="matrix(1,0,0,1,0.159509,-0.274029)">
            <circle cx="7.84" cy="2.274" r="1.006" style="fill:rgb(248,125,126);"/>
        </g>
        <g transform="matrix(1,0,0,1,0.159509,11.726)">
            <circle cx="7.84" cy="2.274" r="1.006" style="fill:rgb(248,125,126);"/>
        </g>
    </g>
    <g transform="matrix(0.0157037,0,0,0.0157037,3.56356,4.51482)">
        <path d="M678.324,460.618C658.321,472.358 638.462,478.131 612.625,480.162C567.246,483.729 532.112,452.658 528.819,454.394C524.685,456.574 543.388,474.053 560.148,480.965C565.045,482.968 569.161,486.506 571.877,491.048C581.922,507.804 588.666,522.932 595.293,546.397C634.586,685.527 482.247,705.033 424.467,604.549C386.972,539.343 358.65,469.832 347.794,400.364C318.355,211.987 703.165,129.806 727.373,353.045C732.761,402.734 713.348,440.061 678.324,460.618ZM522.492,375.379C517.157,401.933 584.388,398.372 577.842,374.387C567.187,335.349 528.752,344.221 522.492,375.379Z" style="fill:rgb(248,125,126);"/>
    </g>
</svg>
