<?xml version="1.0" encoding="UTF-8" standalone="no"?>
<!DOCTYPE svg PUBLIC "-//W3C//DTD SVG 1.1//EN" "http://www.w3.org/Graphics/SVG/1.1/DTD/svg11.dtd">
<svg width="100%" height="100%" viewBox="0 0 16 16" version="1.1" xmlns="http://www.w3.org/2000/svg" xmlns:xlink="http://www.w3.org/1999/xlink" xml:space="preserve" xmlns:serif="http://www.serif.com/" style="fill-rule:evenodd;clip-rule:evenodd;stroke-linejoin:round;stroke-miterlimit:2;">
    <g>
        <path d="M9.648,14.924C9.121,14.973 8.569,15 8,15C5.459,15 3.242,14.466 2.135,13.758C1.343,13.252 1,12.606 1,12L1,4C1,3.394 1.343,2.748 2.135,2.242C3.242,1.534 5.459,1 8,1C10.541,1 12.758,1.534 13.865,2.242C14.657,2.748 15,3.394 15,4L15,7.875C14.465,7.375 13.762,7.085 13,6.985L13,6.189C11.785,6.672 9.992,7 8,7C6.008,7 4.215,6.672 3,6.189L3,11.896C3.084,11.962 3.345,12.162 3.577,12.267C4.579,12.721 6.195,13 8,13C8.208,13 8.414,12.996 8.617,12.989C8.826,13.505 9.079,14.013 9.362,14.507C9.449,14.658 9.545,14.797 9.648,14.924ZM14.929,12.477C14.803,12.892 14.51,13.304 14.015,13.657C14.005,13.438 13.971,13.202 13.908,12.949C14.197,12.876 14.458,12.765 14.722,12.611C14.793,12.569 14.862,12.524 14.929,12.477ZM3.138,4C3.257,4.086 3.424,4.198 3.577,4.267C4.579,4.721 6.195,5 8,5C9.805,5 11.421,4.721 12.423,4.267C12.576,4.198 12.743,4.086 12.862,4C12.743,3.914 12.576,3.802 12.423,3.733C11.421,3.279 9.805,3 8,3C6.195,3 4.579,3.279 3.577,3.733C3.424,3.802 3.257,3.914 3.138,4Z" style="fill:rgb(248,125,126);"/>
    </g>
    <g transform="matrix(0.0157037,0,0,0.0157037,3.56356,4.51482)">
        <path d="M678.324,460.618C658.321,472.358 638.462,478.131 612.625,480.162C567.246,483.729 532.112,452.658 528.819,454.394C524.685,456.574 543.388,474.053 560.148,480.965C565.045,482.968 569.161,486.506 571.877,491.048C581.922,507.804 588.666,522.932 595.293,546.397C634.586,685.527 482.247,705.033 424.467,604.549C386.972,539.343 358.65,469.832 347.794,400.364C318.355,211.987 703.165,129.806 727.373,353.045C732.761,402.734 713.348,440.061 678.324,460.618ZM522.492,375.379C517.157,401.933 584.388,398.372 577.842,374.387C567.187,335.349 528.752,344.221 522.492,375.379Z" style="fill:rgb(248,125,126);"/>
    </g>
</svg>
