<?xml version="1.0" encoding="UTF-8" standalone="no"?>
<!DOCTYPE svg PUBLIC "-//W3C//DTD SVG 1.1//EN" "http://www.w3.org/Graphics/SVG/1.1/DTD/svg11.dtd">
<svg width="100%" height="100%" viewBox="0 0 16 16" version="1.1" xmlns="http://www.w3.org/2000/svg" xmlns:xlink="http://www.w3.org/1999/xlink" xml:space="preserve" xmlns:serif="http://www.serif.com/" style="fill-rule:evenodd;clip-rule:evenodd;stroke-linejoin:round;stroke-miterlimit:2;">
    <g>
        <path d="M8.272,12.003L8,12.166L1.056,8L8,3.834L13.354,7.046C12.773,6.921 12.144,6.915 11.523,7.021C11.043,7.102 10.578,7.251 10.153,7.458L8,6.166L4.944,8L8,9.834L8.09,9.78C7.995,10.149 7.973,10.544 8.037,10.956C8.092,11.306 8.171,11.655 8.272,12.003Z" style="fill:rgb(248,125,126);"/>
    </g>
    <g transform="matrix(0.0157037,0,0,0.0157037,3.56356,4.51482)">
        <path d="M678.324,460.618C658.321,472.358 638.462,478.131 612.625,480.162C567.246,483.729 532.112,452.658 528.819,454.394C524.685,456.574 543.388,474.053 560.148,480.965C565.045,482.968 569.161,486.506 571.877,491.048C581.922,507.804 588.666,522.932 595.293,546.397C634.586,685.527 482.247,705.033 424.467,604.549C386.972,539.343 358.65,469.832 347.794,400.364C318.355,211.987 703.165,129.806 727.373,353.045C732.761,402.734 713.348,440.061 678.324,460.618ZM522.492,375.379C517.157,401.933 584.388,398.372 577.842,374.387C567.187,335.349 528.752,344.221 522.492,375.379Z" style="fill:rgb(248,125,126);"/>
    </g>
</svg>
